HIERARCHY
ROOT RootJoint
{
    OFFSET   0.000000   0.000000   0.000000
    CHANNELS 6 Xposition Yposition Zposition Xrotation Yrotation Zrotation
    JOINT pelvis_lowerback
    {
        OFFSET   0.000000   0.093605   0.000000
        CHANNELS 3 Xrotation Yrotation Zrotation
        JOINT lowerback_torso
        {
            OFFSET   0.000000   0.100000   0.000000
            CHANNELS 3 Xrotation Yrotation Zrotation
            JOINT torso_head
            {
                OFFSET   0.000000   0.282350   0.000000
                CHANNELS 3 Xrotation Yrotation Zrotation
                End Site
                {
                    OFFSET   0.000000   0.192650   0.000000
                }
            }
            JOINT rTorso_Clavicle
            {
                OFFSET  -0.001000   0.157500   0.000000
                CHANNELS 3 Xrotation Yrotation Zrotation
                JOINT rShoulder
                {
                    OFFSET  -0.117647   0.000000   0.000000
                    CHANNELS 3 Xrotation Yrotation Zrotation
                    JOINT rElbow
                    {
                        OFFSET  -0.245000   0.000000   0.000000
                        CHANNELS 3 Xrotation Yrotation Zrotation
                        JOINT rWrist
                        {
                            OFFSET  -0.240000   0.000000   0.000000
                            CHANNELS 3 Xrotation Yrotation Zrotation
                            End Site
                            {
                                OFFSET  -0.116353  -0.002500   0.000000
                            }
                        }
                    }
                }
            }
            JOINT lTorso_Clavicle
            {
                OFFSET   0.001000   0.157500   0.000000
                CHANNELS 3 Xrotation Yrotation Zrotation
                JOINT lShoulder
                {
                    OFFSET   0.117647   0.000000   0.000000
                    CHANNELS 3 Xrotation Yrotation Zrotation
                    JOINT lElbow
                    {
                        OFFSET   0.245000   0.000000   0.000000
                        CHANNELS 3 Xrotation Yrotation Zrotation
                        JOINT lWrist
                        {
                            OFFSET   0.240000   0.000000   0.000000
                            CHANNELS 3 Xrotation Yrotation Zrotation
                            End Site
                            {
                                OFFSET   0.116353  -0.002500   0.000000
                            }
                        }
                    }
                }
            }
        }
    }
    JOINT rHip
    {
        OFFSET  -0.100000  -0.051395   0.000000
        CHANNELS 3 Xrotation Yrotation Zrotation
        JOINT rKnee
        {
            OFFSET   0.000000  -0.410000   0.000000
            CHANNELS 3 Xrotation Yrotation Zrotation
            JOINT rAnkle
            {
                OFFSET   0.000000  -0.390000   0.000000
                CHANNELS 3 Xrotation Yrotation Zrotation
                JOINT rToeJoint
                {
                    OFFSET   0.000000  -0.050000   0.130000
                    CHANNELS 3 Xrotation Yrotation Zrotation
                    End Site
                    {
                        OFFSET  -0.010000   0.002000   0.060000
                    }
                }
            }
        }
    }
    JOINT lHip
    {
        OFFSET   0.100000  -0.051395   0.000000
        CHANNELS 3 Xrotation Yrotation Zrotation
        JOINT lKnee
        {
            OFFSET   0.000000  -0.410000   0.000000
            CHANNELS 3 Xrotation Yrotation Zrotation
            JOINT lAnkle
            {
                OFFSET   0.000000  -0.390000   0.000000
                CHANNELS 3 Xrotation Yrotation Zrotation
                JOINT lToeJoint
                {
                    OFFSET   0.000000  -0.050000   0.130000
                    CHANNELS 3 Xrotation Yrotation Zrotation
                    End Site
                    {
                        OFFSET   0.010000   0.002000   0.060000
                    }
                }
            }
        }
    }
}
MOTION
Frames: 17
Frame Time:   0.008333
 -2.326941   0.914529   4.127804  21.845401  10.532395  -3.316958  11.498628   2.139895   1.937823  -8.714036  -3.513896  -3.275151  -3.152499   0.040037  -5.247180 -17.959366  29.470195 -25.400671 -57.460869  28.638793   4.470923   0.099049  49.088708  -0.043207   0.713856   1.975790 -15.510712 -15.412393 -27.620537  25.265243 -45.357831 -29.865067  -2.318064   0.085157 -42.086788   0.028929  -2.711652  -8.776703  17.253617 -35.843514  -6.982191  -8.907186  51.364466  -0.018232  -0.039195  -5.799467 -12.069833   9.991855  -5.426832  -0.017903   0.018675 -39.564327   0.553521   3.228352  50.084323   0.026729   0.034568  12.991386  -0.311109  -4.987051 -44.895734  -0.010285  -0.002131
 -2.325455   0.929888   4.142074  21.827470  10.572751  -4.311006   9.465682   2.187475   3.006681  -8.318426  -3.639525  -3.187821  -2.242951  -0.046893  -5.563125 -17.192558  29.002943 -25.775541 -58.177315  28.695709   4.578255   0.103137  47.566873  -0.040907   0.873066   2.203494 -15.555527 -14.810550 -26.894719  25.524978 -45.471507 -29.908330  -2.321480   0.082087 -40.819076   0.022899  -2.615416  -8.957128  17.171423 -34.088826  -7.430650  -7.462708  49.834721  -0.013788  -0.039623  -3.410429 -11.773737  10.721257  -4.228794  -0.017058   0.019531 -37.419936   0.062899   4.121091  46.594885   0.021784   0.025346  16.620346  -0.287992  -5.521999 -43.320947  -0.006742   0.007008
 -2.324047   0.944906   4.155891  21.821063  10.763610  -5.344524   7.570133   2.162125   4.101448  -7.924607  -3.792220  -2.998578  -1.333223  -0.155419  -5.929971 -16.476260  28.541094 -26.150621 -58.809947  28.694740   4.632080   0.104696  46.079263  -0.039467   0.954324   2.103056 -15.613445 -14.253246 -26.175362  25.775797 -45.555728 -29.849821  -2.320072   0.077257 -39.591228   0.015660  -2.570588  -8.931728  17.032345 -32.438206  -7.835640  -6.012603  48.565418  -0.010833  -0.039622  -1.183330 -11.467192  11.391541  -3.145935  -0.015110   0.020710 -35.389116  -0.347455   5.050949  43.102027   0.016162   0.012923  20.322703  -0.276802  -6.061307 -40.805512  -0.001960   0.023394
 -2.322611   0.959485   4.169217  21.826521  11.054838  -6.352870   5.815572   2.092924   5.174698  -7.536083  -3.950488  -2.768686  -0.478909  -0.298745  -6.289894 -15.825535  28.092805 -26.498084 -59.393067  28.677668   4.661845   0.103807  44.670017  -0.039094   0.994749   1.859135 -15.690158 -13.768311 -25.464423  25.998006 -45.642893 -29.767955  -2.322091   0.071729 -38.430706   0.008571  -2.555571  -8.808906  16.847437 -30.890770  -8.180568  -4.619300  47.438446  -0.008784  -0.039130   0.890880 -11.156713  12.005214  -2.158095  -0.012692   0.021602 -33.490577  -0.698436   5.961868  39.655279   0.011797   0.000494  24.070818  -0.302107  -6.604582 -37.209072   0.006473   0.045830
 -2.321066   0.973481   4.181997  21.825058  11.394747  -7.325142   4.213415   2.000766   6.221717  -7.139576  -4.102058  -2.520398   0.329491  -0.492951  -6.643496 -15.246589  27.657051 -26.814780 -59.944161  28.648052   4.681172   0.100673  43.348638  -0.039043   1.019527   1.576128 -15.784731 -13.384485 -24.745750  26.235725 -45.756170 -29.675271  -2.332515   0.066442 -37.339108   0.002177  -2.556860  -8.636211  16.603729 -29.438394  -8.470381  -3.290155  46.416264  -0.007280  -0.037994   2.822130 -10.846710  12.565930  -1.256048  -0.010205   0.021869 -31.751254  -0.992414   6.805434  36.294513   0.007750  -0.009698  27.842634  -0.424456  -7.161007 -32.433168   0.025160   0.069483
 -2.319396   0.986879   4.194298  21.809344  11.771976  -8.248550   2.738545   1.905635   7.227932  -6.764471  -4.226864  -2.250804   1.077367  -0.628028  -6.959567 -14.690781  27.257093 -27.104707 -60.443936  28.633869   4.693884   0.095923  42.107165  -0.039445   1.032018   1.262434 -15.892840 -12.999318 -24.103118  26.394353 -45.829566 -29.585075  -2.302696   0.060495 -36.319601  -0.003511  -2.557962  -8.465875  16.466364 -28.066468  -8.711896  -2.037333  45.475581  -0.006175  -0.036403   4.620132 -10.540598  13.077898  -0.431470  -0.007826   0.021576 -30.169461  -1.241136   7.573462  33.128612   0.004200  -0.017517  31.362866  -0.572350  -7.673690 -27.621893   0.046239   0.083477
 -2.317644   0.999673   4.206115  21.772379  12.171043  -9.114042   1.392855   1.806577   8.183862  -6.386508  -4.334489  -1.979784   1.771910  -0.766915  -7.254705 -14.181053  26.877543 -27.369396 -60.914831  28.620973   4.712049   0.089891  40.949566  -0.039628   1.041684   0.959015 -15.997916 -12.653760 -23.486848  26.540304 -45.906742 -29.495397  -2.289552   0.054565 -35.367446  -0.008265  -2.559405  -8.299494  16.315816 -26.773286  -8.908936  -0.861945  44.607907  -0.005315  -0.034471   6.294334 -10.241028  13.545153   0.322765  -0.005706   0.020839 -28.729628  -1.452155   8.269402  30.168953   0.001319  -0.023190  34.646073  -0.739482  -8.144572 -22.814375   0.067190   0.088741
 -2.315560   1.011693   4.216379  21.882765  12.295788  -8.830729   0.122565   1.867018   7.640139  -6.070293  -4.477977  -1.657588   2.374453  -0.799101  -7.153769 -13.865292  26.474986 -27.423765 -61.072506  28.643470   4.756152   0.079255  39.884380  -0.034715   1.020648   0.549067 -16.304690 -12.358230 -23.054948  26.415372 -45.896184 -29.585998  -2.204826   0.048782 -34.412115  -0.009110  -2.547346  -8.301448  16.378401 -26.307870  -8.656722  -1.033185  43.871302  -0.004584  -0.029143   8.348636  -9.914636  13.869199   1.096941  -0.003354   0.017302 -28.383210  -0.939134   7.850651  29.964783   0.000631  -0.019117  33.219243  -0.399874  -8.814057 -18.443464   0.094582   0.090251
 -2.313575   1.023233   4.225926  21.881690  12.264280  -8.285154  -0.949273   1.973630   6.938850  -5.692961  -4.588528  -1.508762   2.925002  -0.820463  -7.054018 -13.530599  26.111717 -27.463719 -61.206432  28.673615   4.827503   0.067321  38.901586  -0.028322   1.010117   0.187370 -16.558912 -12.057813 -22.635737  26.200472 -45.878561 -29.635820  -2.167618   0.041970 -33.520320  -0.008452  -2.533259  -8.329074  16.493327 -25.970997  -8.351734  -1.471200  43.031134  -0.003586  -0.023529  10.267129  -9.608795  14.154730   1.853278  -0.002481   0.013597 -28.117229  -0.395681   7.293244  30.224451   0.000873  -0.014974  31.876145  -0.070732  -9.435819 -14.699482   0.105631   0.081220
 -2.311859   1.034285   4.234907  21.805471  12.125478  -7.666703  -1.865774   2.098712   6.218839  -5.259773  -4.679746  -1.448995   3.437592  -0.839204  -6.964900 -13.187254  25.786044 -27.505479 -61.322662  28.708869   4.915319   0.055517  37.988568  -0.021518   1.007190  -0.130623 -16.743223 -11.753310 -22.228250  25.937222 -45.851296 -29.645714  -2.165494   0.034832 -32.678019  -0.007153  -2.533255  -8.315735  16.576858 -25.736967  -8.054698  -1.963678  42.169275  -0.002326  -0.018136  12.052028  -9.318678  14.409450   2.541492  -0.002566   0.010372 -27.858973   0.110881   6.781805  30.565503   0.000852  -0.011884  30.633041   0.250123 -10.008727 -11.262658   0.106689   0.069014
 -2.310436   1.044818   4.243397  21.676038  11.927653  -7.029334  -2.645418   2.226625   5.504281  -4.785931  -4.764959  -1.441662   3.916955  -0.856771  -6.883392 -12.846692  25.490135 -27.547869 -61.424969  28.746481   5.010983   0.044593  37.138913  -0.014999   1.009633  -0.416484 -16.870955 -11.445963 -21.840726  25.648538 -45.817021 -29.629586  -2.190042   0.027815 -31.883405  -0.005640  -2.547629  -8.257757  16.617352 -25.589636  -7.777857  -2.459004  41.323438  -0.001022  -0.013341  13.713413  -9.042540  14.638102   3.165625  -0.003070   0.007817 -27.612395   0.572387   6.345139  30.907434   0.000565  -0.009572  29.477909   0.562452 -10.536349  -8.108672   0.101578   0.056947
 -2.309282   1.054806   4.251462  21.506054  11.703621  -6.392979  -3.304207   2.350165   4.802669  -4.282538  -4.850519  -1.470626   4.366191  -0.873523  -6.808833 -12.515384  25.218997 -27.589535 -61.516102  28.784845   5.109548   0.034895  36.347596  -0.009169   1.015928  -0.677524 -16.956823 -11.136481 -21.478212  25.348029 -45.777748 -29.597858  -2.236055   0.021202 -31.135869  -0.004176  -2.572471  -8.167519  16.617549 -25.510974  -7.520996  -2.941856  40.507114   0.000166  -0.009308  15.260424  -8.779653  14.843968   3.732231  -0.003666   0.005910 -27.384244   0.991029   5.980227  31.231011   0.000144  -0.007774  28.403039   0.865106 -11.022415  -5.217228   0.093138   0.046432
 -2.308357   1.064222   4.259161  21.304368  11.473866  -5.767092  -3.857361   2.466349   4.117952  -3.758544  -4.938579  -1.526505   4.787574  -0.889526  -6.740894 -12.196326  24.969725 -27.630195 -61.597990  28.823388   5.208429   0.026532  35.610358  -0.004214   1.025148  -0.917953 -17.011530 -10.825832 -21.142750  25.044005 -45.734835 -29.557189  -2.299714   0.015178 -30.434170  -0.002899  -2.604110  -8.056515  16.581168 -25.485452  -7.281683  -3.406896  39.725261   0.001162  -0.006053  16.701290  -8.529606  15.029626   4.247106  -0.004185   0.004547 -27.178213   1.370845   5.678187  31.531366  -0.000308  -0.006328  27.402256   1.157063 -11.470398  -2.567713   0.083270   0.037852
 -2.307933   1.073036   4.265619  21.030423  11.183275  -5.274591  -3.856537   2.609622   3.564938  -3.576779  -4.918890  -1.602905   5.044170  -0.879533  -6.503099 -12.186987  24.808230 -27.304140 -61.318541  28.956603   5.269240   0.019136  35.070836  -0.000781   1.015268  -1.045779 -17.177859 -10.713344 -20.973990  24.564591 -45.747503 -29.432282  -2.481231   0.011804 -30.329832  -0.002022  -2.716155  -7.744691  16.603783 -25.775683  -6.815353  -3.616678  39.732964   0.000916  -0.004841  16.913786  -8.118791  14.724114   4.301799  -0.003242   0.003890 -27.435923   1.816296   5.591094  32.884965  -0.001741  -0.004008  26.294915   1.510320 -11.684037  -1.682420   0.068234   0.032371
 -2.307642   1.081291   4.271553  20.680103  10.905275  -4.807718  -3.729674   2.748716   3.045861  -3.311626  -4.896157  -1.668542   5.273695  -0.866475  -6.273758 -12.145580  24.660426 -26.943431 -61.046646  29.062633   5.357548   0.012513  34.575695   0.001889   1.026312  -1.096195 -17.333432 -10.588005 -20.822102  24.066624 -45.758129 -29.315520  -2.679894   0.009070 -30.254984  -0.001451  -2.789656  -7.595756  16.675603 -26.101792  -6.368591  -3.767303  39.845065   0.000581  -0.003816  17.106791  -7.733688  14.436737   4.278119  -0.002629   0.003002 -27.730057   2.227171   5.530658  34.293853  -0.002723  -0.002141  25.272017   1.845500 -11.875628  -0.871912   0.055956   0.027811
 -2.307415   1.088974   4.277089  20.284980  10.651045  -4.357924  -3.523606   2.880323   2.554383  -2.974615  -4.877218  -1.729709   5.488751  -0.853437  -6.061025 -12.075630  24.527022 -26.580628 -60.782731  29.144352   5.465317   0.006760  34.108963   0.003969   1.034275  -1.151856 -17.434105 -10.444792 -20.685527  23.577611 -45.760929 -29.199146  -2.890497   0.006812 -30.185193  -0.001053  -2.853250  -7.479280  16.712749 -26.443618  -5.955011  -3.885746  39.958135   0.000293  -0.002989  17.289161  -7.374563  14.168021   4.256211  -0.002126   0.002299 -28.032716   2.607136   5.471231  35.623234  -0.003166  -0.000741  24.319782   2.161493 -12.048286  -0.123835   0.046009   0.023843
 -2.307225   1.096065   4.282302  19.862046  10.424761  -3.925885  -3.255357   3.002887   2.090213  -2.585166  -4.862658  -1.787384   5.690876  -0.840713  -5.863686 -11.985362  24.407782 -26.226371 -60.528644  29.209068   5.585390   0.001930  33.668808   0.005520   1.035430  -1.225653 -17.481580 -10.288114 -20.564327  23.104640 -45.757076 -29.084795  -3.107823   0.004954 -30.118242  -0.000783  -2.915999  -7.362000  16.704018 -26.796880  -5.571739  -3.979615  40.054199   0.000080  -0.002328  17.460388  -7.039817  13.916705   4.234771  -0.001718   0.001737 -28.344274   2.959892   5.408517  36.856598  -0.003188   0.000317  23.431322   2.459005 -12.204187   0.560259   0.037968   0.020368
